<svg xmlns="http://www.w3.org/2000/svg" viewBox="0 0 267.21 129.89"><defs><style>.cls-1{fill:#fff;}</style></defs><title>White Logo SVG</title><g id="Layer_2" data-name="Layer 2"><g id="Layer_2-2" data-name="Layer 2"><path class="cls-1" d="M0,0H74q0,14.75,0,29.5H52.36q0,50.17,0,100.34H21.66q0-50.17,0-100.33H0Q0,14.76,0,0Z"/><path class="cls-1" d="M83.53,0H173q0,14.67,0,29.33H83.54Q83.53,14.67,83.53,0Z"/><path class="cls-1" d="M229.29,0c12.64-.06,25.28,0,37.92,0Q242,32.31,216.74,64.58q24.47,32.66,49,65.27h-38.5q-23.39-32.29-46.82-64.56Q204.85,32.64,229.29,0Z"/><path class="cls-1" d="M83.54,99.94q44.74,0,89.49,0,0,14.95,0,29.89c-29.81,0-59.62-.06-89.42.05C83.44,119.91,83.57,109.92,83.54,99.94Z"/><path class="cls-1" d="M83.54,50.07h88.85q0,14.52,0,29H83.54Q83.53,64.59,83.54,50.07Z"/></g></g></svg>